<?xml version="1.0" encoding="UTF-8"?>
<svg version="1.1" xmlns="http://www.w3.org/2000/svg" width="316" height="316">
<path d="M0 0 C104.28 0 208.56 0 316 0 C316 104.28 316 208.56 316 316 C211.72 316 107.44 316 0 316 C0 211.72 0 107.44 0 0 Z " fill="#79DC77" transform="translate(0,0)"/>
<path d="M0 0 C104.28 0 208.56 0 316 0 C316 104.28 316 208.56 316 316 C211.72 316 107.44 316 0 316 C0 211.72 0 107.44 0 0 Z M5 2 C5 90.44 5 178.88 5 270 C8.63 270 12.26 270 16 270 C17.32207726 268.90335295 17.32207726 268.90335295 17.12025452 266.18431091 C17.11803391 264.92522415 17.11581329 263.66613739 17.11352539 262.36889648 C17.11367142 261.67624695 17.11381744 260.98359741 17.1139679 260.2699585 C17.11326874 257.97030554 17.10547628 255.67073263 17.09765625 253.37109375 C17.09579208 251.78068588 17.09436817 250.19027743 17.09336853 248.59986877 C17.08954329 244.4060407 17.07971295 240.21224705 17.06866455 236.01843262 C17.05845057 231.74211086 17.05387094 227.46578356 17.04882812 223.18945312 C17.03809068 214.79295116 17.02049384 206.39648382 17 198 C24.92 198 32.84 198 41 198 C41 190.08 41 182.16 41 174 C47.27 174 53.54 174 60 174 C60 172.35 60 170.7 60 169 C56.04 169 52.08 169 48 169 C48 156.13 48 143.26 48 130 C52.29 130 56.58 130 61 130 C61 142.54 61 155.08 61 168 C65.29 168 69.58 168 74 168 C74 172.29 74 176.58 74 181 C86.54 181 99.08 181 112 181 C112 177.04 112 173.08 112 169 C116.29 169 120.58 169 125 169 C125 173.29 125 177.58 125 182 C121.04 182 117.08 182 113 182 C113 186.29 113 190.58 113 195 C104.42 195 95.84 195 87 195 C87 198.96 87 202.92 87 207 C95.58 207 104.16 207 113 207 C113 211.29 113 215.58 113 220 C134.12 220 155.24 220 177 220 C177 215.71 177 211.42 177 207 C172.71 207 168.42 207 164 207 C164 203.04 164 199.08 164 195 C159.71 195 155.42 195 151 195 C151 190.38 151 185.76 151 181 C155.29 181 159.58 181 164 181 C164 176.71 164 172.42 164 168 C168.29 168 172.58 168 177 168 C177 164.04 177 160.08 177 156 C194.16 156 211.32 156 229 156 C229 143.13 229 130.26 229 117 C233.29 117 237.58 117 242 117 C242 129.54 242 142.08 242 155 C246.29 155 250.58 155 255 155 C255 159.29 255 163.58 255 168 C259.29 168 263.58 168 268 168 C268 172.62 268 177.24 268 182 C263.71 182 259.42 182 255 182 C255 183.65 255 185.3 255 187 C255 187.66 255 188.32 255 189 C255.01160156 190.2684375 255.02320313 191.536875 255.03515625 192.84375 C255.04447407 194.39583213 255.05357997 195.94791554 255.0625 197.5 C255.07087891 198.28503906 255.07925781 199.07007813 255.08789062 199.87890625 C255.11316831 205.77366337 255.11316831 205.77366337 254 208 C250.01434954 208.60613909 246.02725031 208.74564735 242 209 C242 212.96 242 216.92 242 221 C240.700625 220.979375 239.40125 220.95875 238.0625 220.9375 C236.70834367 220.91600546 235.35243917 220.92851801 234 221 C232.78519716 221.99411455 232.78519716 221.99411455 232.87974548 223.94252014 C232.88196609 224.79301437 232.88418671 225.64350861 232.88647461 226.51977539 C232.88655014 227.48069595 232.88662567 228.44161652 232.88670349 229.43165588 C232.89186478 230.476436 232.89702606 231.52121613 232.90234375 232.59765625 C232.9037587 233.66165146 232.90517365 234.72564667 232.90663147 235.82188416 C232.91224936 239.23545083 232.92480489 242.648953 232.9375 246.0625 C232.94251269 248.37044176 232.947076 250.67838455 232.95117188 252.98632812 C232.96222461 258.65757711 232.97950123 264.3287776 233 270 C237.95 270 242.9 270 248 270 C248 267.36 248 264.72 248 262 C258.89 262 269.78 262 281 262 C281 264.64 281 267.28 281 270 C286.28 270 291.56 270 297 270 C297 246.24 297 222.48 297 198 C300.96 198 304.92 198 309 198 C311.18100986 132.62770968 311 67.45606697 311 2 C210.02 2 109.04 2 5 2 Z " fill="#5AC65C" transform="translate(0,0)"/>
<path d="M0 0 C104.28 0 208.56 0 316 0 C316 104.28 316 208.56 316 316 C211.72 316 107.44 316 0 316 C0 211.72 0 107.44 0 0 Z M5 2 C5 90.44 5 178.88 5 270 C8.63 270 12.26 270 16 270 C16.33 269.67 16.66 269.34 17 269 C17 266.69 17 264.38 17 262 C27.56 262 38.12 262 49 262 C49 264.64 49 267.28 49 270 C59.56 270 70.12 270 81 270 C81 267.36 81 264.72 81 262 C91.56 262 102.12 262 113 262 C113 264.64 113 267.28 113 270 C118.28 270 123.56 270 129 270 C129 272.64 129 275.28 129 278 C134.28 278 139.56 278 145 278 C145 280.64 145 283.28 145 286 C150.28 286 155.56 286 161 286 C161 283.36 161 280.72 161 278 C166.28 278 171.56 278 177 278 C177 280.64 177 283.28 177 286 C184.92 286 192.84 286 201 286 C201 288.64 201 291.28 201 294 C203.64 294 206.28 294 209 294 C209 291.36 209 288.72 209 286 C211.64 286 214.28 286 217 286 C217 283.36 217 280.72 217 278 C218.07121094 278.01160156 219.14242187 278.02320313 220.24609375 278.03515625 C221.64322743 278.04453299 223.04036299 278.05363331 224.4375 278.0625 C225.14455078 278.07087891 225.85160156 278.07925781 226.58007812 278.08789062 C228.38693559 278.09653588 230.19387603 278.05220011 232 278 C232.33 277.67 232.66 277.34 233 277 C233 274.69 233 272.38 233 270 C237.95 270 242.9 270 248 270 C248 267.36 248 264.72 248 262 C258.89 262 269.78 262 281 262 C281 264.64 281 267.28 281 270 C286.28 270 291.56 270 297 270 C297 246.24 297 222.48 297 198 C300.96 198 304.92 198 309 198 C311.18100986 132.62770968 311 67.45606697 311 2 C210.02 2 109.04 2 5 2 Z " fill="#49CB4C" transform="translate(0,0)"/>
<path d="M0 0 C100.98 0 201.96 0 306 0 C306 1.32 306 2.64 306 4 C305.34 4 304.68 4 304 4 C304 19.84 304 35.68 304 52 C299.71 52 295.42 52 291 52 C291 49.69 291 47.38 291 45 C290.34402832 45.00523682 289.68805664 45.01047363 289.01220703 45.01586914 C286.04981437 45.03661272 283.08743697 45.04965176 280.125 45.0625 C278.57619141 45.07506836 278.57619141 45.07506836 276.99609375 45.08789062 C276.00996094 45.09111328 275.02382813 45.09433594 274.0078125 45.09765625 C273.09660645 45.10289307 272.18540039 45.10812988 271.24658203 45.11352539 C269 45 269 45 267 44 C267 41.69 267 39.38 267 37 C251.82 37.33 236.64 37.66 221 38 C220.34 40.31 219.68 42.62 219 45 C214.05 45 209.1 45 204 45 C204 47.31 204 49.62 204 52 C200.84493858 52.93619813 198.03413498 53.1057123 194.75 53.0625 C193.85796875 53.05347656 192.9659375 53.04445312 192.046875 53.03515625 C191.37140625 53.02355469 190.6959375 53.01195312 190 53 C189.85304687 53.56589844 189.70609375 54.13179687 189.5546875 54.71484375 C188.86380166 56.97411985 188.18251078 58.95118095 187 61 C183.8125 62 183.8125 62 181 62 C180.34 64.31 179.68 66.62 179 69 C176.70890403 69.08075665 174.41700733 69.13907731 172.125 69.1875 C170.21074219 69.23970703 170.21074219 69.23970703 168.2578125 69.29296875 C167.18273437 69.19628906 166.10765625 69.09960938 165 69 C162.8480563 65.77208445 162.79913557 64.71599191 163 61 C158.37760802 60.97497039 153.75525692 60.95698679 149.1328125 60.94506836 C147.5657482 60.940091 145.99868842 60.93330671 144.43164062 60.92456055 C135.23144947 60.87455951 126.16124808 61.00853745 117 62 C116.34 64.31 115.68 66.62 115 69 C110.38 69.33 105.76 69.66 101 70 C100.67 71.98 100.34 73.96 100 76 C92.575 76.99 92.575 76.99 85 78 C84.34 80.31 83.68 82.62 83 85 C81.02 85.33 79.04 85.66 77 86 C76.67 88.31 76.34 90.62 76 93 C70.72 93 65.44 93 60 93 C59.505 89.04 59.505 89.04 59 85 C56.69 85 54.38 85 52 85 C52 82.36 52 79.72 52 77 C49.03 76.67 46.06 76.34 43 76 C43 73.69 43 71.38 43 69 C42.00097656 69.01160156 41.00195312 69.02320312 39.97265625 69.03515625 C38.68230469 69.04417969 37.39195313 69.05320312 36.0625 69.0625 C34.77472656 69.07410156 33.48695312 69.08570312 32.16015625 69.09765625 C29 69 29 69 28 68 C27.95907063 65.66702567 27.95758277 63.33294775 28 61 C26.92878906 61.01160156 25.85757812 61.02320313 24.75390625 61.03515625 C23.35677257 61.04453299 21.95963701 61.05363331 20.5625 61.0625 C19.85544922 61.07087891 19.14839844 61.07925781 18.41992188 61.08789062 C16.61306441 61.09653588 14.80612397 61.05220011 13 61 C11.03177114 59.03177114 11.33751619 55.65191291 11 53 C8.03 52.67 5.06 52.34 2 52 C1.97533255 45.48551715 1.95715556 38.97106133 1.94506836 32.45654297 C1.94003091 30.23909024 1.93320078 28.02164084 1.92456055 25.80419922 C1.91246928 22.62206195 1.9067659 19.43996849 1.90234375 16.2578125 C1.89718246 15.26194122 1.89202118 14.26606995 1.88670349 13.24002075 C1.88662796 12.31921722 1.88655243 11.3984137 1.88647461 10.44970703 C1.884254 9.6369632 1.88203339 8.82421936 1.87974548 7.98684692 C2 6 2 6 3 4 C2.01 4 1.02 4 0 4 C0 2.68 0 1.36 0 0 Z " fill="#77DD8C" transform="translate(5,2)"/>
<path d="M0 0 C12.87 0 25.74 0 39 0 C39 4.29 39 8.58 39 13 C43.29 13 47.58 13 52 13 C52 8.71 52 4.42 52 0 C60.58 0 69.16 0 78 0 C78 4.29 78 8.58 78 13 C82.29 13 86.58 13 91 13 C91 17.29 91 21.58 91 26 C95.29 26 99.58 26 104 26 C104 38.87 104 51.74 104 65 C86.84 65 69.68 65 52 65 C52 68.96 52 72.92 52 77 C47.71 77 43.42 77 39 77 C39 81.29 39 85.58 39 90 C34.71 90 30.42 90 26 90 C26 94.62 26 99.24 26 104 C30.29 104 34.58 104 39 104 C39 107.96 39 111.92 39 116 C43.29 116 47.58 116 52 116 C52 120.29 52 124.58 52 129 C30.88 129 9.76 129 -12 129 C-12 124.71 -12 120.42 -12 116 C-20.58 116 -29.16 116 -38 116 C-38 112.04 -38 108.08 -38 104 C-29.42 104 -20.84 104 -12 104 C-12 99.71 -12 95.42 -12 91 C-8.04 91 -4.08 91 0 91 C0 86.71 0 82.42 0 78 C-4.29 78 -8.58 78 -13 78 C-13 81.96 -13 85.92 -13 90 C-25.54 90 -38.08 90 -51 90 C-51 85.71 -51 81.42 -51 77 C-55.29 77 -59.58 77 -64 77 C-64 64.46 -64 51.92 -64 39 C-46.84 39 -29.68 39 -12 39 C-12 34.71 -12 30.42 -12 26 C-16.29 26 -20.58 26 -25 26 C-25 21.71 -25 17.42 -25 13 C-16.75 13 -8.5 13 0 13 C0 8.71 0 4.42 0 0 Z " fill="#F8F024" transform="translate(125,91)"/>
<path d="M0 0 C4.29 0 8.58 0 13 0 C13 12.54 13 25.08 13 38 C17.29 38 21.58 38 26 38 C26 42.29 26 46.58 26 51 C30.29 51 34.58 51 39 51 C39 55.62 39 60.24 39 65 C34.71 65 30.42 65 26 65 C26 66.65 26 68.3 26 70 C26.66 70.33 27.32 70.66 28 71 C27.67 71.33 27.34 71.66 27 72 C26.97357986 75.58559015 27.02937124 79.15827084 27.12695312 82.7421875 C27.21337584 88.67993624 27.21337584 88.67993624 25 92 C22.1796875 92.29296875 22.1796875 92.29296875 18.875 92.1875 C17.23144531 92.14689453 17.23144531 92.14689453 15.5546875 92.10546875 C14.71164063 92.07066406 13.86859375 92.03585938 13 92 C13.08378906 92.61488281 13.16757813 93.22976562 13.25390625 93.86328125 C13.40666016 95.07564453 13.40666016 95.07564453 13.5625 96.3125 C13.66691406 97.11300781 13.77132812 97.91351563 13.87890625 98.73828125 C14 101 14 101 13 104 C5.81466632 104.95754184 -1.19448925 105.1166622 -8.4375 105.0625 C-9.59878418 105.05871338 -10.76006836 105.05492676 -11.95654297 105.05102539 C-15.63773435 105.0388787 -19.31884472 105.02022877 -23 105 C-27.87499759 104.97351573 -32.74995806 104.9535016 -37.625 104.9375 C-38.75091553 104.92920166 -39.87683105 104.92090332 -41.03686523 104.91235352 C-42.06884033 104.90905029 -43.10081543 104.90574707 -44.1640625 104.90234375 C-45.07623535 104.89710693 -45.9884082 104.89187012 -46.92822266 104.88647461 C-48.99082161 104.76836864 -48.99082161 104.76836864 -50 106 C-50.23363881 107.84891946 -50.41303635 109.70488031 -50.5625 111.5625 C-50.64628906 112.57441406 -50.73007813 113.58632812 -50.81640625 114.62890625 C-50.87699219 115.41136719 -50.93757812 116.19382812 -51 117 C-57.51175526 117.974634 -63.85906501 118.14577487 -70.4375 118.1328125 C-71.51700928 118.13376923 -72.59651855 118.13472595 -73.70874023 118.13571167 C-75.98128315 118.13638934 -78.25382804 118.13456397 -80.52636719 118.13037109 C-83.98897686 118.12501704 -87.45145683 118.13033018 -90.9140625 118.13671875 C-93.13020862 118.1360579 -95.34635465 118.13477658 -97.5625 118.1328125 C-98.58980225 118.13483673 -99.61710449 118.13686096 -100.67553711 118.13894653 C-106.21130793 118.12104234 -111.52371008 117.81965279 -117 117 C-117 112.71 -117 108.42 -117 104 C-118.8975 104.185625 -120.795 104.37125 -122.75 104.5625 C-129.23656472 105.06748475 -135.56032287 104.99926024 -142 104 C-143 103 -143 103 -143.09765625 100.27734375 C-143.06510417 97.18489583 -143.03255208 94.09244792 -143 91 C-147.29 91 -151.58 91 -156 91 C-156 82.75 -156 74.5 -156 66 C-159.96 66 -163.92 66 -168 66 C-169.81115956 64.18884044 -169.38199448 61.38721773 -169.5625 58.9375 C-169.64628906 57.83277344 -169.73007813 56.72804687 -169.81640625 55.58984375 C-169.87699219 54.73519531 -169.93757813 53.88054687 -170 53 C-173.63 52.67 -177.26 52.34 -181 52 C-181 39.13 -181 26.26 -181 13 C-176.71 13 -172.42 13 -168 13 C-168 25.54 -168 38.08 -168 51 C-163.71 51 -159.42 51 -155 51 C-155 55.29 -155 59.58 -155 64 C-142.46 64 -129.92 64 -117 64 C-117 60.04 -117 56.08 -117 52 C-112.71 52 -108.42 52 -104 52 C-104 56.29 -104 60.58 -104 65 C-107.96 65 -111.92 65 -116 65 C-116 69.29 -116 73.58 -116 78 C-124.58 78 -133.16 78 -142 78 C-142 81.96 -142 85.92 -142 90 C-133.42 90 -124.84 90 -116 90 C-116 94.29 -116 98.58 -116 103 C-94.88 103 -73.76 103 -52 103 C-52 98.71 -52 94.42 -52 90 C-56.29 90 -60.58 90 -65 90 C-65 86.04 -65 82.08 -65 78 C-69.29 78 -73.58 78 -78 78 C-78 73.38 -78 68.76 -78 64 C-73.71 64 -69.42 64 -65 64 C-65 59.71 -65 55.42 -65 51 C-60.71 51 -56.42 51 -52 51 C-52 47.04 -52 43.08 -52 39 C-34.84 39 -17.68 39 0 39 C0 26.13 0 13.26 0 0 Z " fill="#62624D" transform="translate(229,117)"/>
<path d="M0 0 C21.45 0 42.9 0 65 0 C65 4.29 65 8.58 65 13 C68.96 13 72.92 13 77 13 C77 21.58 77 30.16 77 39 C73.04 39 69.08 39 65 39 C65 42.96 65 46.92 65 51 C73.25 51 81.5 51 90 51 C90 55.62 90 60.24 90 65 C94.29 65 98.58 65 103 65 C103 68.96 103 72.92 103 77 C107.29 77 111.58 77 116 77 C116 81.29 116 85.58 116 90 C94.88 90 73.76 90 52 90 C52 85.71 52 81.42 52 77 C43.42 77 34.84 77 26 77 C26 73.04 26 69.08 26 65 C34.58 65 43.16 65 52 65 C52 60.71 52 56.42 52 52 C55.96 52 59.92 52 64 52 C64 47.71 64 43.42 64 39 C59.71 39 55.42 39 51 39 C51 42.96 51 46.92 51 51 C38.46 51 25.92 51 13 51 C13 46.71 13 42.42 13 38 C8.71 38 4.42 38 0 38 C0 25.46 0 12.92 0 0 Z " fill="#F8C12B" transform="translate(61,130)"/>
<path d="M0 0 C104.28 0 208.56 0 316 0 C316 104.28 316 208.56 316 316 C211.72 316 107.44 316 0 316 C0 211.72 0 107.44 0 0 Z M4 2 C4 103.31 4 204.62 4 309 C105.64 309 207.28 309 312 309 C312 207.69 312 106.38 312 2 C210.36 2 108.72 2 4 2 Z " fill="#070D07" transform="translate(0,0)"/>
<path d="M0 0 C8.58 0 17.16 0 26 0 C26 4.29 26 8.58 26 13 C30.29 13 34.58 13 39 13 C39 17.29 39 21.58 39 26 C43.29 26 47.58 26 52 26 C52 38.87 52 51.74 52 65 C34.84 65 17.68 65 0 65 C0 60.71 0 56.42 0 52 C-4.29 52 -8.58 52 -13 52 C-13 39.13 -13 26.26 -13 13 C-8.71 13 -4.42 13 0 13 C0 8.71 0 4.42 0 0 Z " fill="#FAFBF7" transform="translate(177,91)"/>
<path d="M0 0 C17.16 0 34.32 0 52 0 C52 4.29 52 8.58 52 13 C55.96 13 59.92 13 64 13 C64 17.29 64 21.58 64 26 C60.04 26 56.08 26 52 26 C52.020625 27.8975 52.04125 29.795 52.0625 31.75 C52.13353408 38.28513501 51.55110306 44.38676329 51 51 C38.46 51 25.92 51 13 51 C13 46.71 13 42.42 13 38 C8.71 38 4.42 38 0 38 C0 25.46 0 12.92 0 0 Z " fill="#F9FBE5" transform="translate(61,130)"/>
<path d="M0 0 C4.29 0 8.58 0 13 0 C13 12.54 13 25.08 13 38 C17.29 38 21.58 38 26 38 C26 42.29 26 46.58 26 51 C38.54 51 51.08 51 64 51 C64 47.04 64 43.08 64 39 C68.29 39 72.58 39 77 39 C77 43.29 77 47.58 77 52 C73.04 52 69.08 52 65 52 C65 56.29 65 60.58 65 65 C56.42 65 47.84 65 39 65 C39 73.25 39 81.5 39 90 C38.67 90 38.34 90 38 90 C38 86.04 38 82.08 38 78 C33.71 78 29.42 78 25 78 C25 69.75 25 61.5 25 53 C21.04 53 17.08 53 13 53 C11.18884044 51.18884044 11.61800552 48.38721773 11.4375 45.9375 C11.35371094 44.83277344 11.26992188 43.72804687 11.18359375 42.58984375 C11.12300781 41.73519531 11.06242187 40.88054687 11 40 C7.37 39.67 3.74 39.34 0 39 C0 26.13 0 13.26 0 0 Z " fill="#5D8A51" transform="translate(48,130)"/>
<path d="M0 0 C0.33 0 0.66 0 1 0 C1 100.32 1 200.64 1 304 C101.98 304 202.96 304 307 304 C307 203.68 307 103.36 307 0 C307.33 0 307.66 0 308 0 C308 101.31 308 202.62 308 307 C206.36 307 104.72 307 0 307 C0 205.69 0 104.38 0 0 Z " fill="#307A32" transform="translate(4,2)"/>
<path d="M0 0 C4.29 0 8.58 0 13 0 C13 12.87 13 25.74 13 39 C16.96 39 20.92 39 25 39 C25 42.96 25 46.92 25 51 C-0.41 51 -25.82 51 -52 51 C-52 47.04 -52 43.08 -52 39 C-34.84 39 -17.68 39 0 39 C0 26.13 0 13.26 0 0 Z " fill="#523845" transform="translate(229,117)"/>
<path d="M0 0 C0.33 0 0.66 0 1 0 C1 52.8 1 105.6 1 160 C-3.62 160 -8.24 160 -13 160 C-13.15376286 150.01234357 -13.30194437 140.02462152 -13.4429636 130.03677654 C-13.50861776 125.39922737 -13.57620788 120.76172313 -13.64819336 116.12426758 C-13.71756799 111.65045079 -13.78189514 107.1765875 -13.84269524 102.70264626 C-13.86680579 100.99416269 -13.89274752 99.28570396 -13.92053413 97.57727623 C-13.95908635 95.18786886 -13.9911782 92.79845673 -14.02172852 90.40893555 C-14.03467453 89.69971451 -14.04762054 88.99049347 -14.06095886 88.25978088 C-14.0939323 85.20570457 -13.97508055 82.92524166 -13 80 C-9.04 80 -5.08 80 -1 80 C-1.00523682 78.99775391 -1.01047363 77.99550781 -1.01586914 76.96289062 C-1.13743153 51.29075747 -0.77558658 25.66036436 0 0 Z " fill="#56CB5B" transform="translate(310,118)"/>
<path d="M0 0 C100.98 0 201.96 0 306 0 C306 1.32 306 2.64 306 4 C205.02 4 104.04 4 0 4 C0 2.68 0 1.36 0 0 Z " fill="#95E0A5" transform="translate(5,2)"/>
<path d="M0 0 C8.58 0 17.16 0 26 0 C26 4.29 26 8.58 26 13 C17.75 13 9.5 13 1 13 C1 17.29 1 21.58 1 26 C5.29 26 9.58 26 14 26 C14 30.29 14 34.58 14 39 C-3.16 39 -20.32 39 -38 39 C-38 34.71 -38 30.42 -38 26 C-29.42 26 -20.84 26 -12 26 C-12 21.71 -12 17.42 -12 13 C-8.04 13 -4.08 13 0 13 C0 8.71 0 4.42 0 0 Z " fill="#563D48" transform="translate(99,91)"/>
<path d="M0 0 C25.41 0 50.82 0 77 0 C77 3.96 77 7.92 77 12 C68.42 12 59.84 12 51 12 C51 16.29 51 20.58 51 25 C46.71 25 42.42 25 38 25 C38 20.71 38 16.42 38 12 C25.46 12 12.92 12 0 12 C0 8.04 0 4.08 0 0 Z " fill="#543946" transform="translate(126,79)"/>
<path d="M0 0 C25.41 0 50.82 0 77 0 C77 8.25 77 16.5 77 25 C73.04 25 69.08 25 65 25 C65 20.71 65 16.42 65 12 C43.55 12 22.1 12 0 12 C0 8.04 0 4.08 0 0 Z " fill="#533746" transform="translate(177,182)"/>
<path d="M0 0 C25.41 0 50.82 0 77 0 C77 3.96 77 7.92 77 12 C51.59 12 26.18 12 0 12 C0 8.04 0 4.08 0 0 Z " fill="#FC684B" transform="translate(177,169)"/>
<path d="M0 0 C12.87 0 25.74 0 39 0 C39 4.29 39 8.58 39 13 C26.33864809 14.28216222 13.71328937 14.0891813 1 14 C1 18.29 1 22.58 1 27 C-7.7476288 27.09612779 -16.28543051 26.766116 -25 26 C-25 21.71 -25 17.42 -25 13 C-16.75 13 -8.5 13 0 13 C0 8.71 0 4.42 0 0 Z " fill="#F1F334" transform="translate(125,91)"/>
<path d="M0 0 C21.45 0 42.9 0 65 0 C65 4.29 65 8.58 65 13 C43.55 13 22.1 13 0 13 C0 8.71 0 4.42 0 0 Z " fill="#F8664B" transform="translate(177,194)"/>
<path d="M0 0 C29.7 0 59.4 0 90 0 C90 0.33 90 0.66 90 1 C64.59 1 39.18 1 13 1 C13 4.96 13 8.92 13 13 C38.41 13 63.82 13 90 13 C90 13.33 90 13.66 90 14 C64.59 14 39.18 14 13 14 C13 22.25 13 30.5 13 39 C8.71 39 4.42 39 0 39 C0 35.04 0 31.08 0 27 C-4.29 27 -8.58 27 -13 27 C-13 22.38 -13 17.76 -13 13 C-8.71 13 -4.42 13 0 13 C0 8.71 0 4.42 0 0 Z " fill="#A45C44" transform="translate(164,168)"/>
<path d="M0 0 C21.12 0 42.24 0 64 0 C64 4.29 64 8.58 64 13 C42.88 13 21.76 13 0 13 C0 8.71 0 4.42 0 0 Z " fill="#543945" transform="translate(113,220)"/>
<path d="M0 0 C0.66 0 1.32 0 2 0 C2 11.22 2 22.44 2 34 C29.21570065 33.89268067 56.43137406 33.7801507 83.64702415 33.66066074 C96.28290241 33.60531517 108.91878348 33.55183101 121.5546875 33.50268555 C132.56445452 33.45986003 143.57420063 33.4135862 154.58393538 33.36312145 C160.41681427 33.33650734 166.24968898 33.31165396 172.08259201 33.29092598 C177.56704743 33.27138188 183.05146302 33.24724483 188.53588295 33.21950912 C190.55395728 33.21012687 192.57204036 33.20245584 194.59012794 33.19658089 C197.3351436 33.18833963 200.08006205 33.1740686 202.82504272 33.15821838 C204.03611649 33.15675122 204.03611649 33.15675122 205.27165639 33.15525442 C209.26593953 33.2132398 209.26593953 33.2132398 213 32 C215.3525384 31.9030469 217.7079695 31.8702095 220.0625 31.875 C221.33222656 31.87242187 222.60195312 31.86984375 223.91015625 31.8671875 C227 32 227 32 228 33 C230.34253782 33.09492722 232.65546104 33.12559791 234.99829102 33.11352539 C235.72995483 33.11367142 236.46161865 33.11381744 237.2154541 33.1139679 C239.64496784 33.11326867 242.07440583 33.10547585 244.50390625 33.09765625 C246.18399514 33.0957921 247.86408457 33.09436819 249.54417419 33.09336853 C253.97473643 33.08954307 258.4052661 33.07971256 262.83581543 33.06866455 C267.35342976 33.05845103 271.87104934 33.05387104 276.38867188 33.04882812 C285.25913123 33.03809031 294.12955781 33.02049329 303 33 C303.33 24.75 303.66 16.5 304 8 C304.66 8 305.32 8 306 8 C306 17.24 306 26.48 306 36 C205.02 36 104.04 36 0 36 C0 24.12 0 12.24 0 0 Z " fill="#3EB241" transform="translate(5,270)"/>
<path d="M0 0 C20.79 0 41.58 0 63 0 C63 3.63 63 7.26 63 11 C42.21 11 21.42 11 0 11 C0 7.37 0 3.74 0 0 Z " fill="#523745" transform="translate(178,208)"/>
<path d="M0 0 C12.54 0 25.08 0 38 0 C38 3.96 38 7.92 38 12 C29.75 12 21.5 12 13 12 C13 16.29 13 20.58 13 25 C8.71 25 4.42 25 0 25 C0 16.75 0 8.5 0 0 Z " fill="#533746" transform="translate(74,182)"/>
<path d="M0 0 C4.29 0 8.58 0 13 0 C13 12.87 13 25.74 13 39 C8.71 39 4.42 39 0 39 C0 26.13 0 13.26 0 0 Z " fill="#593F46" transform="translate(151,104)"/>
<path d="M0 0 C12.54 0 25.08 0 38 0 C38 3.96 38 7.92 38 12 C25.46 12 12.92 12 0 12 C0 8.04 0 4.08 0 0 Z " fill="#F8FE2D" transform="translate(74,169)"/>
<path d="M0 0 C3.96 0 7.92 0 12 0 C12 12.54 12 25.08 12 38 C8.04 38 4.08 38 0 38 C0 25.46 0 12.92 0 0 Z " fill="#543846" transform="translate(49,130)"/>
<path d="M0 0 C12.54 0 25.08 0 38 0 C38 3.63 38 7.26 38 11 C25.46 11 12.92 11 0 11 C0 7.37 0 3.74 0 0 Z " fill="#F8FE2D" transform="translate(126,92)"/>
<path d="M0 0 C8.58 0 17.16 0 26 0 C26 4.29 26 8.58 26 13 C17.42 13 8.84 13 0 13 C0 8.71 0 4.42 0 0 Z " fill="#583C45" transform="translate(87,207)"/>
<path d="M0 0 C4.29 0 8.58 0 13 0 C13 8.58 13 17.16 13 26 C8.71 26 4.42 26 0 26 C0 17.42 0 8.84 0 0 Z " fill="#5A3F4D" transform="translate(203,117)"/>
<path d="M0 0 C3.96 0 7.92 0 12 0 C12 8.25 12 16.5 12 25 C8.04 25 4.08 25 0 25 C0 16.75 0 8.5 0 0 Z " fill="#523745" transform="translate(126,143)"/>
<path d="M0 0 C3.63 0 7.26 0 11 0 C11 7.92 11 15.84 11 24 C7.37 24 3.74 24 0 24 C0 16.08 0 8.16 0 0 Z " fill="#F4F0F0" transform="translate(166,117)"/>
<path d="M0 0 C8.58 0 17.16 0 26 0 C26 4.29 26 8.58 26 13 C47.12 13 68.24 13 90 13 C90 8.71 90 4.42 90 0 C111.45 0 132.9 0 155 0 C155 0.33 155 0.66 155 1 C147.81466632 1.95754184 140.80551075 2.1166622 133.5625 2.0625 C132.40121582 2.05871338 131.23993164 2.05492676 130.04345703 2.05102539 C126.36226565 2.0388787 122.68115528 2.02022877 119 2 C114.12500241 1.97351573 109.25004194 1.9535016 104.375 1.9375 C103.24908447 1.92920166 102.12316895 1.92090332 100.96313477 1.91235352 C99.93115967 1.90905029 98.89918457 1.90574707 97.8359375 1.90234375 C96.92376465 1.89710693 96.0115918 1.89187012 95.07177734 1.88647461 C93.00917839 1.76836864 93.00917839 1.76836864 92 3 C91.76636119 4.84891946 91.58696365 6.70488031 91.4375 8.5625 C91.31181641 10.08037109 91.31181641 10.08037109 91.18359375 11.62890625 C91.12300781 12.41136719 91.06242187 13.19382813 91 14 C84.48824474 14.974634 78.14093499 15.14577487 71.5625 15.1328125 C70.48299072 15.13376923 69.40348145 15.13472595 68.29125977 15.13571167 C66.01871685 15.13638934 63.74617196 15.13456397 61.47363281 15.13037109 C58.01102314 15.12501704 54.54854317 15.13033018 51.0859375 15.13671875 C48.86979138 15.1360579 46.65364535 15.13477658 44.4375 15.1328125 C42.89654663 15.13584885 42.89654663 15.13584885 41.32446289 15.13894653 C35.78869207 15.12104234 30.47628992 14.81965279 25 14 C25 9.71 25 5.42 25 1 C23.1025 1.185625 21.205 1.37125 19.25 1.5625 C12.71946268 2.07863467 6.49528127 1.76070862 0 1 C0 0.67 0 0.34 0 0 Z " fill="#4C884A" transform="translate(87,220)"/>
<path d="M0 0 C0.33 0 0.66 0 1 0 C1 12.87 1 25.74 1 39 C-16.16 39 -33.32 39 -51 39 C-51 34.71 -51 30.42 -51 26 C-46.71 26 -42.42 26 -38 26 C-38 29.63 -38 33.26 -38 37 C-25.46 37.33 -12.92 37.66 0 38 C0 25.46 0 12.92 0 0 Z " fill="#E2DBDC" transform="translate(228,117)"/>
<path d="M0 0 C4.29 0 8.58 0 13 0 C13 4.29 13 8.58 13 13 C8.71 13 4.42 13 0 13 C0 8.71 0 4.42 0 0 Z " fill="#5B3B45" transform="translate(164,194)"/>
<path d="M0 0 C4.29 0 8.58 0 13 0 C13 4.29 13 8.58 13 13 C8.71 13 4.42 13 0 13 C0 8.71 0 4.42 0 0 Z " fill="#5C4146" transform="translate(164,143)"/>
<path d="M0 0 C4.29 0 8.58 0 13 0 C13 4.29 13 8.58 13 13 C8.71 13 4.42 13 0 13 C0 8.71 0 4.42 0 0 Z " fill="#563D49" transform="translate(216,104)"/>
<path d="M0 0 C4.29 0 8.58 0 13 0 C13 4.29 13 8.58 13 13 C8.71 13 4.42 13 0 13 C0 8.71 0 4.42 0 0 Z " fill="#563E49" transform="translate(203,91)"/>
<path d="M0 0 C4.29 0 8.58 0 13 0 C13 3.96 13 7.92 13 12 C8.71 12 4.42 12 0 12 C0 8.04 0 4.08 0 0 Z " fill="#F8674A" transform="translate(164,182)"/>
<path d="M0 0 C4.29 0 8.58 0 13 0 C13 3.96 13 7.92 13 12 C8.71 12 4.42 12 0 12 C0 8.04 0 4.08 0 0 Z " fill="#573745" transform="translate(254,169)"/>
<path d="M0 0 C4.29 0 8.58 0 13 0 C13 3.96 13 7.92 13 12 C8.71 12 4.42 12 0 12 C0 8.04 0 4.08 0 0 Z " fill="#543945" transform="translate(61,169)"/>
<path d="M0 0 C4.29 0 8.58 0 13 0 C13 3.96 13 7.92 13 12 C8.71 12 4.42 12 0 12 C0 8.04 0 4.08 0 0 Z " fill="#F7FB2F" transform="translate(61,156)"/>
<path d="M0 0 C3.96 0 7.92 0 12 0 C12 3.96 12 7.92 12 12 C8.04 12 4.08 12 0 12 C0 8.04 0 4.08 0 0 Z " fill="#523746" transform="translate(152,182)"/>
<path d="M0 0 C3.96 0 7.92 0 12 0 C12 3.96 12 7.92 12 12 C8.04 12 4.08 12 0 12 C0 8.04 0 4.08 0 0 Z " fill="#533746" transform="translate(165,169)"/>
<path d="M0 0 C3.96 0 7.92 0 12 0 C12 3.96 12 7.92 12 12 C8.04 12 4.08 12 0 12 C0 8.04 0 4.08 0 0 Z " fill="#513546" transform="translate(113,169)"/>
<path d="M0 0 C3.96 0 7.92 0 12 0 C12 3.96 12 7.92 12 12 C8.04 12 4.08 12 0 12 C0 8.04 0 4.08 0 0 Z " fill="#F8FE2C" transform="translate(113,156)"/>
<path d="M0 0 C3.96 0 7.92 0 12 0 C12 3.96 12 7.92 12 12 C8.04 12 4.08 12 0 12 C0 8.04 0 4.08 0 0 Z " fill="#513645" transform="translate(113,130)"/>
<path d="M0 0 C0.33 0 0.66 0 1 0 C1 3.96 1 7.92 1 12 C4.96 12 8.92 12 13 12 C13 12.33 13 12.66 13 13 C9.04 13 5.08 13 1 13 C1 17.29 1 21.58 1 26 C-7.58 26 -16.16 26 -25 26 C-25 25.67 -25 25.34 -25 25 C-16.75 25 -8.5 25 0 25 C0 21.04 0 17.08 0 13 C-12.54 13 -25.08 13 -38 13 C-38 12.67 -38 12.34 -38 12 C-25.46 12 -12.92 12 0 12 C0 8.04 0 4.08 0 0 Z " fill="#AF8C37" transform="translate(112,169)"/>
<path d="M0 0 C0.99 0 1.98 0 3 0 C2.67 15.84 2.34 31.68 2 48 C1.34 48 0.68 48 0 48 C0 32.16 0 16.32 0 0 Z " fill="#65CA77" transform="translate(5,6)"/>
<path d="M0 0 C0.33 0 0.66 0 1 0 C1 12.54 1 25.08 1 38 C4.96 38 8.92 38 13 38 C13 38.33 13 38.66 13 39 C9.04 39 5.08 39 1 39 C1 42.96 1 46.92 1 51 C0.67 51 0.34 51 0 51 C0 47.04 0 43.08 0 39 C-3.96 39 -7.92 39 -12 39 C-12 38.67 -12 38.34 -12 38 C-8.04 38 -4.08 38 0 38 C0 29.75 0 21.5 0 13 C-3.96 13 -7.92 13 -12 13 C-12 12.67 -12 12.34 -12 12 C-8.04 12 -4.08 12 0 12 C0 8.04 0 4.08 0 0 Z " fill="#A4934F" transform="translate(125,130)"/>
</svg>
